<?xml version="1.0" encoding="utf-8"?>
<!-- Generator: Adobe Illustrator 27.5.0, SVG Export Plug-In . SVG Version: 6.00 Build 0)  -->
<svg version="1.1" id="Layer_1" xmlns="http://www.w3.org/2000/svg" xmlns:xlink="http://www.w3.org/1999/xlink" x="0px" y="0px"
	 viewBox="0 0 3000 3000" style="enable-background:new 0 0 3000 3000;" xml:space="preserve">
<rect style="fill:#FFFFFF;" width="3000" height="3000"/>
<g>
	<g>
		<g>
			<polygon style="fill:#003642;" points="654.143,1981.623 1500,2162.706 2345.857,1981.623 2345.857,1430.45 654.143,1430.45 			
				"/>
		</g>
	</g>
	<g>
		<g>
			<path style="fill:none;" d="M1089.147,1195.319c19.802,8.592,27.846,5.37,41.007-11.178c12.57-14.478,26.315-28.532,38.5-42.835
				c9.393-10.907,18.414-22.184,22.26-35.977c1.769-5.273,6.938-35.917-4.927-28.126c-12.093,9.569-34.852,35.753-47.848,47.784
				c-8.688,8.684-15.412,7.3-25.438,9.313l-0.343,0.093c-12.357,3.436-22.201,17.325-32.413,27.298
				C1057.115,1183.69,1065.34,1184.756,1089.147,1195.319z"/>
		</g>
		<g>
			<path style="fill:none;" d="M1436.94,1084.747c-9.943,5.254-19.983,12.347-29.323,18.854
				c-22.416,15.858-44.845,33.428-65.198,52.135c-2.569,2.662-7.427,6.7-7.326,9.215c0.362,0.546,1.943,0.173,4.492-1.01
				c3.124-1.446,7.41-3.974,10.798-6.1c29.322-18.932,57.824-41.163,83.689-64.967c2.638-2.696,7.897-7.099,7.92-9.56l-0.047-0.06
				C1441.512,1082.781,1439.739,1083.333,1436.94,1084.747z"/>
		</g>
		<g>
			<path style="fill:none;" d="M1285.192,1073.562c7.714,7.52,17.529,17.205,25.173,25.225c7.031,7.203,12.935,11.833,18.723,11.861
				c8.364,0.005,15.916-7.714,22.222-13.227c38.175-35.686,76.768-73.332,96.694-122.124c2.485-8.282-9.509,3.254-12.438,5.588
				c-18.654,16.047-44.375,38.195-64.255,55.295c-12.019,9.913-24.25,22.33-19.679,13.879c8.167-14.273,18.803-28.594,26.134-43.174
				c13.641-28.571,35.069-70.408,46.778-97.491l0.001-0.069c-0.005-0.328-0.186-0.394-0.542-0.226
				c-0.285,0.134-0.682,0.418-1.188,0.834c-3.651,3.148-13.16,12.409-25.802,24.351c-40.581,40.095-102.973,94.808-125.17,120.694
				c-0.501,1.712-0.048,3.466,1.461,5.722C1275.385,1063.822,1279.619,1068.06,1285.192,1073.562z"/>
		</g>
		<g>
			<path style="fill:none;" d="M1654.897,1050.676c11.407,10.455,23.29,23.956,35.051,34.061c8.72,7.872,20.148,8.146,30.814,4.269
				c5.374-2.13,12.289-4.287,13.889-10.174c0.219-7.024-8.195-11.918-16.224-21.212c-2.505-2.709-4.973-5.529-7.344-8.37
				c-10.545-12.819-20.37-25.884-21.386-41.792c-0.996-9.933,2.101-19.605,0.685-24.593l-0.075-0.13
				c-1.056-1.862-4.739,0.619-11.032,6.201c-8.269,7.483-20.295,18.401-28.614,26.184
				C1633.566,1030.696,1640.147,1036.549,1654.897,1050.676z"/>
		</g>
		<g>
			<path style="fill:none;" d="M928.211,1259.62c-1.703-6.581,41.813-82.621,33.117-83.257
				c-33.273,30.317-140.304,144.832-164.23,168.316c-0.934,1.159-3.229,3.252-1.151,2.753c5.778-0.901,51.973-29.505,48.544-20.399
				c-0.219,3.635-32.363,41.252-21.504,38.152c22.496-13.96,54.505-41,76.846-57.05c2.79-1.678,12.971-10.791,14.394-6.703
				c0.301,0.999,0.185,2.586,0.052,4.2c0.028,1.779-0.969,5.315,1.469,5.495c8.007-1.774,49.629-51.367,49.04-60.976l-0.03-0.174
				C962.524,1241.742,929.479,1266.473,928.211,1259.62z"/>
		</g>
		<g>
			<path style="fill:none;" d="M2100.006,1268.256c-4.389-4.587-7.81-9.789-9.341-15.893c-1.949-7.122-2.793-19.358-12.725-15.788
				c-5.729,2.009-14.453,8.617-20.96,13.693c-3.255,2.739-7.02,5.553-8.892,9.245l-0.094,0.225
				c-3.472,5.32,13.93,12.609,20.441,17.022c25.943,15.221,58.71,34.616,84.797,49.836c3.771,2.175,5.359,2.703,2.061-0.886
				C2143.305,1312.902,2114.687,1283.741,2100.006,1268.256z"/>
		</g>
		<g>
			<path style="fill:none;" d="M1448.256,1352.683c28.827,11.522,80.067,35.314,98.531,40.979c-0.267-1.14-8.557-7.803-20.17-17.897
				c-35.803-29.655-89.486-79.002-117.27-99.541c-3.731-0.944,1.332,10.176-4.309,8.08c-11.206-4.472-26.2-28.637-38.184-24.385
				c-2.424,1.072-4.074,3.21-6.933,3.064c-2.704-0.054-5.756-2.484-8.246-4.47c-16.906-14.52-55.571-48.131-76.003-65.8
				c-4.991-4.044-14.628-14.04-18.409-11.896c-7.559,3.779-11.63,9.235-23.038,18.29c-18.285,15.532-42.893,36.357-62.635,53.134
				c-25.329,20.834-39.677,35.093-56.018,46.467c-10.456,4.633-21.174-5.896-31.554-7.41c-9.766-1.619-15.116,5.399-27.383,15.387
				c-20.447,17.365-43.903,37.405-63.781,54.273c-10.837,9.456-24.218,19.535-9.149,10.883
				c13.576-7.592,47.583-26.911,66.054-37.232c4.583-2.127,14.12-8.657,14.391-0.259c-0.118,6.553-3.711,14.878-5.877,21.777
				c-1.292,5.121-9.255,22.192-0.619,17.427c34.615-24.023,139.974-102.757,170.243-124.18c2.059-1.311,2.102-0.745,1.039,1.126
				c-10.143,15.628-29.924,43.208-40.956,59.463c-0.791,1.511-7.476,9.933-2.679,8.065c12.183-6.295,25.297-15.304,38.285-22.977
				c8.659-5.294,17.186-10.593,23.959-14.667c9.03-5.441,15.579-7.715,21.165-5.072c8.236,4.196,13.197,14.281,17.556,22.377
				c10.505,20.338,14.509,44.44,32.892,58.848c8.24,6.287,21.658,16.553,27.025,14.698c5.514-5.836-31.587-49.924-14.91-45.05
				c32.289,13.53,97.149,49.678,131.967,63.579c10.003,0.836-26.29-31.228-27.009-35.259l-0.158-0.243
				C1429.777,1344.451,1444.214,1351.176,1448.256,1352.683z"/>
		</g>
		<g>
			<path style="fill:none;" d="M1835.942,1184.816c-3.666,0.766,5.472,20.863-4.862,15.006
				c-9.214-4.303-25.066-28.181-38.905-20.973c-7.729,4.975-10.677,7.855-19.319,1.696c-28.39-18.94-102.125-68.741-127.92-85.955
				c-6.032-3.796-9.561-5.427-10.99,0.768c-1.348,9.264-5.856,6.861-12.258,2.646c-8.454-5.753-21.859-15.531-33.509-23.783
				c-54.518-39.696,2.807,14.443,11.782,29.036c8.351,11.461,9.333,25.561,11.65,39.098c1.692,9.346,5.628,18.126,11.537,25.574
				c6.553,8.131,13.687,15.823,19.995,18.702c1.667,0.697,3.648,1.037,5.155,0.099c1.318-0.75,2.137-2.351,3.136-3.296
				c3.259-2.433,9.802,6.923,16.098,12.537c30.613,30.654,97.309,97.481,119.708,119.886c10.434,10.676,9.161,2.553,3.428-11.695
				c-1.182-4.003-11.347-24.245-3.263-20.983c9.621,5.699,18.449,17.214,26.549,25.637c14.715,16.539,27.912,31.527,44.297,44.365
				c1.464,1.017,9.948,8.378,8.063,3.732c-3.728-7.433-24.932-37.884-32.838-50.324c-7.111-11.389-14.329-22.483,0.495-11.944
				c6.415,4.532,15.683,12.601,22.501,16.914c14.276,9.258,7.634-1.61-6.242-17.045c-17.689-21.288-38.884-43.11-51.86-61.471
				c-3.504-6.196,4.326-2.01,8.087-0.058c36.503,20.752,104.846,61.632,139.099,80.899l0.266,0.141
				c17.058,8.706,36.785,19.24,53.33,26.897c2.758,1.087,0.72-0.981-0.272-1.976
				C1954.228,1297.217,1866.837,1211.58,1835.942,1184.816z"/>
		</g>
		<g>
			<path style="fill:#003642;" d="M654.147,1430.45c0,0,32.388-31.637,142.005-151.734
				c57.929-63.469,117.283-127.079,138.06-147.963l1.759-1.759c4.434-4.47,13.661-13.776,28.777-13.776
				c4.983,0,9.945,1.054,14.75,3.132l1.272,0.551l1.219,0.664c9.85,5.38,18.39,12.687,26.646,19.755
				c4.014,3.436,8.109,6.94,11.893,9.775c0.921-0.818,1.801-1.618,2.533-2.282c1.907-1.73,3.743-3.387,5.484-4.859
				c4.932-4.38,10.116-9.072,15.364-13.826c10.119-9.161,20.583-18.633,30.259-26.784c12.058-10.241,23.756-12.879,31.495-14.623
				c1.479-0.335,2.778-0.627,3.905-0.931c0.233-0.215,0.51-0.483,0.838-0.812c9.756-10.57,26.392-28.789,42.423-46.343
				c13.032-14.273,25.669-28.108,33.916-37.079c5.239-5.76,17.755-19.516,37.107-19.516c6.47,0,12.92,1.641,18.717,4.758
				c6.916,3.532,13.194,8.616,18.688,13.562c15.086-13.941,35.581-33.368,56.934-53.612c43.996-41.71,89.489-84.84,111.152-102.527
				l5.759-4.701l7.282-1.495c2.367-0.486,4.779-0.732,7.173-0.732c12.94,0,21.356,6.917,24.122,9.19
				c4.537,3.781,8.247,7.71,11.524,11.187c4.965,5.135,10.479,11.136,16.312,17.483c9.325,10.151,19.895,21.656,28.358,29.642
				c1.931,1.802,4.823,3.166,10.181,5.61c3.247,1.482,6.931,3.163,10.925,5.325l0.546,0.295l0.531,0.316
				c10.057,5.991,18.735,13.515,27.127,20.792c3.138,2.72,6.326,5.492,9.62,8.184c0,0,32.526,27.547,39.495,33.446
				c5.812-5.32,28.576-26.204,28.576-26.204c6.314-5.806,12.879-11.844,18.85-16.641c5.591-4.518,17.371-14.034,33.417-14.034
				c7.772,0,15.399,2.193,22.667,6.518c10.476,6.119,19.305,15.761,28.895,26.804c2.745,3.042,5.481,6.14,8.218,9.245
				c5.393,6.112,10.488,11.885,15.621,17.162c4.69,4.767,9.398,8.145,14.847,12.057c6.73,4.832,14.36,10.308,22.345,18.733
				c7.743,8.252,14.222,16.874,20.488,25.211c3.362,4.475,6.541,8.702,9.708,12.6l0.221,0.275c4.047,5.104,5.703,5.839,5.771,5.868
				l0.617,0.08c0.853,0.13,1.96,0.187,3.589,0.187c0.891,0,1.762-0.016,2.615-0.029c1.128-0.016,2.232-0.033,3.312-0.033
				c6.441,0,23.552,0,37.529,15.067l0.676,0.731l0.629,0.773c11.14,13.723,24.503,32.543,37.422,50.744
				c8.469,11.927,16.468,23.192,23.174,32.089l0.416,0.552c0,0,0.88,1.278,1.092,1.578c0.097,0,1.741-0.01,2.512-0.027l1.331-0.03
				l1.328,0.089c26.944,1.787,41.868,21.901,51.742,35.21c0.198,0.264,0.393,0.528,0.59,0.793c2.71-1.975,5.591-4.134,8.427-6.259
				c6.621-4.962,13.466-10.088,19.547-13.944c7.294-4.814,17.22-10.244,29.736-10.244c8.533,0,21.067,2.595,32.529,14.883
				c24.919,25.757,229.122,251.884,229.122,251.884H654.147z"/>
		</g>
		<g>
			<path style="fill:#FFFFFF;" d="M915.748,1311.127c-2.439-0.18-1.441-3.716-1.469-5.495c0.133-1.614,0.249-3.201-0.052-4.2
				c-1.422-4.088-11.604,5.025-14.394,6.703c-22.341,16.05-54.351,43.09-76.846,57.05c-10.859,3.099,21.285-34.517,21.504-38.152
				c3.429-9.107-42.766,19.498-48.544,20.399c-2.078,0.499,0.218-1.595,1.151-2.753c23.927-23.484,130.957-137.999,164.23-168.316
				c8.696,0.636-34.82,76.676-33.117,83.257c1.268,6.853,34.313-17.878,36.548-9.643l0.03,0.174
				C965.377,1259.76,923.755,1309.353,915.748,1311.127z"/>
		</g>
		<g>
			<path style="fill:#FFFFFF;" d="M1650.661,1015.119c8.318-7.783,20.345-18.701,28.614-26.184
				c6.293-5.581,9.976-8.063,11.032-6.201l0.075,0.13c1.416,4.988-1.681,14.66-0.685,24.593
				c1.016,15.908,10.841,28.973,21.386,41.792c2.37,2.842,4.839,5.662,7.344,8.37c8.029,9.293,16.443,14.187,16.224,21.212
				c-1.599,5.887-8.515,8.044-13.889,10.174c-10.666,3.877-22.095,3.603-30.814-4.269c-11.761-10.105-23.644-23.606-35.051-34.061
				C1640.147,1036.549,1633.566,1030.696,1650.661,1015.119z"/>
		</g>
		<g>
			<path style="fill:#FFFFFF;" d="M1271.844,1054.978c22.197-25.887,84.589-80.599,125.17-120.694
				c12.642-11.942,22.152-21.203,25.802-24.351c0.506-0.416,0.903-0.699,1.188-0.834c0.356-0.168,0.537-0.102,0.542,0.226
				l-0.001,0.069c-11.709,27.083-33.137,68.92-46.778,97.491c-7.331,14.58-17.967,28.901-26.134,43.174
				c-4.571,8.452,7.66-3.965,19.679-13.879c19.88-17.1,45.601-39.249,64.255-55.295c2.929-2.334,14.924-13.87,12.438-5.588
				c-19.926,48.793-58.518,86.439-96.694,122.124c-6.305,5.513-13.857,13.233-22.222,13.227
				c-5.788-0.028-11.692-4.658-18.723-11.861c-7.644-8.02-17.459-17.705-25.173-25.225c-5.573-5.502-9.808-9.74-11.888-12.862
				C1271.796,1058.445,1271.342,1056.69,1271.844,1054.978z"/>
		</g>
		<g>
			<path style="fill:#FFFFFF;" d="M1441.991,1083.313c-0.023,2.461-5.281,6.864-7.92,9.56
				c-25.865,23.804-54.366,46.035-83.689,64.967c-3.388,2.126-7.674,4.654-10.798,6.1c-2.549,1.183-4.13,1.556-4.492,1.01
				c-0.101-2.515,4.757-6.553,7.326-9.215c20.353-18.707,42.782-36.277,65.198-52.135c9.34-6.507,19.381-13.599,29.323-18.854
				c2.799-1.414,4.572-1.966,5.003-1.495L1441.991,1083.313z"/>
		</g>
		<g>
			<path style="fill:#FFFFFF;" d="M1079.946,1161.691c10.212-9.973,20.055-23.862,32.413-27.298l0.343-0.093
				c10.026-2.013,16.751-0.629,25.438-9.313c12.996-12.03,35.755-38.215,47.848-47.784c11.866-7.792,6.697,22.853,4.927,28.126
				c-3.847,13.793-12.868,25.07-22.26,35.977c-12.185,14.302-25.93,28.357-38.5,42.835c-13.161,16.548-21.205,19.77-41.007,11.178
				C1065.34,1184.756,1057.115,1183.69,1079.946,1161.691z"/>
		</g>
		<g>
			<path style="fill:#FFFFFF;" d="M1436.073,1354.265l0.158,0.243c0.72,4.031,37.013,36.096,27.009,35.259
				c-34.818-13.901-99.678-50.049-131.967-63.579c-16.677-4.875,20.424,39.214,14.91,45.05c-5.368,1.856-18.786-8.41-27.025-14.698
				c-18.383-14.408-22.387-38.51-32.892-58.848c-4.358-8.096-9.32-18.181-17.556-22.377c-5.586-2.642-12.135-0.368-21.165,5.072
				c-6.773,4.073-15.3,9.373-23.959,14.667c-12.989,7.673-26.102,16.682-38.285,22.977c-4.797,1.868,1.888-6.554,2.679-8.065
				c11.032-16.255,30.813-43.835,40.956-59.463c1.063-1.871,1.021-2.438-1.039-1.126c-30.27,21.423-135.628,100.157-170.243,124.18
				c-8.636,4.765-0.673-12.307,0.619-17.427c2.166-6.899,5.76-15.224,5.877-21.777c-0.272-8.398-9.808-1.869-14.391,0.259
				c-18.471,10.321-52.478,29.64-66.054,37.232c-15.068,8.651-1.687-1.427,9.149-10.883c19.878-16.868,43.333-36.907,63.781-54.273
				c12.268-9.988,17.617-17.006,27.383-15.387c10.38,1.514,21.098,12.043,31.554,7.41c16.34-11.374,30.689-25.633,56.018-46.467
				c19.742-16.777,44.35-37.602,62.635-53.134c11.408-9.055,15.479-14.512,23.038-18.29c3.781-2.144,13.418,7.852,18.409,11.896
				c20.432,17.668,59.096,51.28,76.003,65.8c2.49,1.986,5.542,4.416,8.246,4.47c2.859,0.147,4.509-1.992,6.933-3.064
				c11.984-4.252,26.978,19.913,38.184,24.385c5.641,2.095,0.578-9.024,4.309-8.08c27.784,20.54,81.467,69.887,117.27,99.541
				c11.614,10.094,19.903,16.757,20.17,17.897c-18.465-5.666-69.704-29.457-98.531-40.979
				C1444.214,1351.176,1429.777,1344.451,1436.073,1354.265z"/>
		</g>
		<g>
			<path style="fill:#FFFFFF;" d="M1999.154,1340.921c-16.545-7.657-36.272-18.192-53.33-26.897l-0.266-0.141
				c-34.253-19.266-102.596-60.147-139.099-80.899c-3.761-1.951-11.591-6.138-8.087,0.058c12.976,18.361,34.171,40.183,51.86,61.471
				c13.876,15.435,20.518,26.303,6.242,17.045c-6.818-4.313-16.086-12.382-22.501-16.914c-14.823-10.539-7.606,0.555-0.495,11.944
				c7.905,12.44,29.11,42.891,32.838,50.324c1.885,4.646-6.599-2.714-8.063-3.732c-16.385-12.838-29.582-27.826-44.297-44.365
				c-8.099-8.423-16.927-19.937-26.549-25.637c-8.085-3.262,2.081,16.979,3.263,20.983c5.733,14.248,7.006,22.371-3.428,11.695
				c-22.399-22.405-89.096-89.232-119.708-119.886c-6.296-5.614-12.839-14.971-16.098-12.537c-0.999,0.945-1.818,2.546-3.136,3.296
				c-1.507,0.938-3.488,0.598-5.155-0.099c-6.308-2.879-13.442-10.571-19.995-18.702c-5.909-7.448-9.846-16.227-11.537-25.574
				c-2.317-13.537-3.299-27.637-11.65-39.098c-8.974-14.593-66.3-68.732-11.782-29.036c11.651,8.252,25.055,18.03,33.509,23.783
				c6.402,4.215,10.91,6.618,12.258-2.646c1.429-6.195,4.957-4.564,10.99-0.768c25.795,17.213,99.531,67.015,127.92,85.955
				c8.642,6.159,11.59,3.279,19.319-1.696c13.839-7.208,29.69,16.67,38.905,20.973c10.334,5.858,1.196-14.239,4.862-15.006
				c30.895,26.764,118.286,112.401,162.939,154.129C1999.874,1339.94,2001.912,1342.009,1999.154,1340.921z"/>
		</g>
		<g>
			<path style="fill:#FFFFFF;" d="M2153.231,1326.597c-26.087-15.22-58.854-34.615-84.797-49.836
				c-6.511-4.413-23.913-11.702-20.441-17.022l0.094-0.225c1.873-3.693,5.637-6.506,8.892-9.245
				c6.507-5.076,15.231-11.685,20.96-13.693c9.932-3.57,10.776,8.666,12.725,15.788c1.531,6.104,4.952,11.306,9.341,15.893
				c14.681,15.486,43.299,44.646,55.287,57.455C2158.59,1329.3,2157.002,1328.772,2153.231,1326.597z"/>
		</g>
	</g>
	<g>
		<path style="fill:#003642;" d="M530.854,1430.45c646.097,0,1292.194,0,1938.291,0c0,164.908,0,329.816,0,494.724
			c-642.095-101.698-1296.196-101.698-1938.291,0C530.854,1760.266,530.854,1595.358,530.854,1430.45z"/>
	</g>
	<g>
		<path style="fill:#FFFFFF;" d="M777.196,1560.865h77.244v238.736H802.9v-175.404l-39.616,175.404h-52.866l-39.879-177.329v177.329
			h-51.539v-238.736h77.244l40.411,172.679L777.196,1560.865z"/>
		<path style="fill:#FFFFFF;" d="M918.203,1655.464c0-36.238,5.608-61.541,16.82-75.917c11.212-14.376,30.764-21.566,58.662-21.566
			h25.918c27.986,0,47.605,7.215,58.859,21.645c11.258,14.43,16.887,39.708,16.887,75.837v49.543
			c0,36.13-5.629,61.403-16.887,75.833c-11.254,14.43-30.873,21.645-58.859,21.645h-25.918c-27.898,0-47.45-7.186-58.662-21.561
			c-11.212-14.376-16.82-39.683-16.82-75.917V1655.464z M972.261,1660.754v39.281c0,20.419,1.896,33.242,5.688,38.477
			c3.792,5.24,11.727,7.859,23.8,7.859h9.789c12.078,0,20.055-2.67,23.934-8.019c3.88-5.344,5.817-18.117,5.817-38.318v-39.281
			c0-20.306-1.938-33.162-5.817-38.561c-3.88-5.395-11.856-8.098-23.934-8.098h-9.789c-11.99,0-19.904,2.674-23.738,8.019
			C974.178,1627.458,972.261,1640.339,972.261,1660.754z"/>
		<path style="fill:#FFFFFF;" d="M1156.199,1560.865h52.598v139.17c0,19.348,2.009,31.907,6.031,37.678
			c4.018,5.771,12.254,8.659,24.709,8.659h9.672c12.367,0,20.536-2.833,24.512-8.5c3.976-5.662,5.959-18.276,5.959-37.837v-139.17
			h52.602v144.142c0,21.377-1.084,37.088-3.248,47.136c-2.164,10.048-5.851,18.757-11.061,26.132
			c-6.186,8.659-13.89,14.861-23.123,18.598c-9.228,3.741-21.708,5.612-37.427,5.612h-26.102c-15.723,0-28.199-1.871-37.427-5.612
			c-9.232-3.737-16.895-9.94-22.989-18.598c-5.298-7.479-9.077-16.326-11.329-26.533c-2.252-10.207-3.377-25.784-3.377-46.734
			V1560.865z"/>
		<path style="fill:#FFFFFF;" d="M1399.354,1799.601v-238.736h78.566l61.344,177.329v-177.329h50.48v238.736h-78.7l-61.344-178.932
			v178.932H1399.354z"/>
		<path style="fill:#FFFFFF;" d="M1698.557,1799.601v-185.507h-50.744v-53.23h154.751v53.23h-50.48v185.507H1698.557z"/>
		<path style="fill:#FFFFFF;" d="M1815.851,1799.601l56.703-238.736h81.353l55.381,238.736h-56.708l-8.876-41.687h-62.14
			l-9.01,41.687H1815.851z M1891.236,1709.334h43.194l-19.611-98.926h-3.444L1891.236,1709.334z"/>
		<path style="fill:#FFFFFF;" d="M2065.766,1799.601v-238.736h53.393v238.736H2065.766z"/>
		<path style="fill:#FFFFFF;" d="M2190.61,1799.601v-238.736h78.566l61.344,177.329v-177.329H2381v238.736h-78.7l-61.344-178.932
			v178.932H2190.61z"/>
	</g>
	<g>
		<path style="fill:#FFFFFF;" d="M1106.878,1944.12c4.445,0.766,8.818,1.381,13.116,1.837c4.29,0.46,8.588,0.845,12.886,1.155
			c2.298,0.46,4.059,0.958,5.29,1.494c1.226,0.54,2.185,1.268,2.875,2.189c0.691,0.917,1.151,2.147,1.381,3.679
			c0.23,1.536,0.347,3.603,0.347,6.215c-6.905-0.31-13.731-0.611-20.482-0.921s-13.422-0.77-20.017-1.381l-1.611,1.607
			c-2.913,6.294-5.675,12.852-8.282,19.678c-2.612,6.822-4.984,13.61-7.131,20.36c-2.151,6.75-3.951,13.463-5.407,20.134
			c-1.461,6.671-2.419,13.074-2.879,19.209c-2.147,0.31-4.139,0.31-5.98,0c-6.135-0.611-10.664-2.645-13.576-6.094
			c-2.917-3.453-4.717-7.709-5.407-12.773c-0.691-5.064-0.46-10.584,0.691-16.565c1.151-5.985,2.607-11.852,4.373-17.602
			c1.762-5.754,3.679-11.124,5.75-16.108c2.072-4.984,3.716-9.01,4.947-12.082c-5.06,0-9.973,0-14.723,0
			c-4.758,0-9.437,0.084-14.037,0.234c-1.076,0-2.151,0.343-3.222,1.034c-1.076,0.69-1.766,1.419-2.072,2.189
			c-2.607,3.218-5.102,6.479-7.479,9.776c-2.377,3.298-4.796,6.638-7.244,10.011c-0.921,1.071-1.996,2.611-3.223,4.599
			c-1.23,1.996-2.339,4.105-3.335,6.328c-1,2.226-1.691,4.373-2.072,6.441c-0.385,2.076-0.117,3.649,0.804,4.721
			c-1.076,0.611-2.264,0.686-3.566,0.226c-1.306-0.46-2.57-1.297-3.796-2.528c-2.762-2.452-3.762-5.675-2.992-9.667
			c0.766-3.984,2.26-8.01,4.486-12.078c2.222-4.059,4.754-7.897,7.596-11.501c2.833-3.608,4.947-6.328,6.328-8.169
			c-4.913,0-9.09,0.151-12.543,0.46s-6.788,0.686-10.011,1.147c-1.532,0-2.8-0.226-3.796-0.686c-0.996-0.46-1.804-1.532-2.415-3.222
			c-1.532-3.373-2.072-5.754-1.611-7.131c0.46-1.381,2.607-2.536,6.445-3.457c5.365-0.762,10.814-1.49,16.334-2.185
			c5.524-0.686,10.965-1.184,16.339-1.494c2.302-0.306,4.29-0.808,5.98-1.494c1.687-0.695,3.298-1.879,4.834-3.566
			c6.591-7.211,13.689-14.648,21.281-22.323c7.596-7.667,15.38-15.259,23.357-22.775c7.973-7.516,16.029-14.807,24.16-21.863
			c8.127-7.052,16.024-13.576,23.7-19.557c1.381-0.921,2.645-1.917,3.796-2.992c1.151-1.071,2.565-1.147,4.256-0.226
			c1.992,1.226,3.796,2.57,5.407,4.026c1.611,1.456,3.026,3.03,4.256,4.712c0.305,0.46,0.381,1.268,0.23,2.419
			c-0.155,1.147-0.385,2.109-0.691,2.875c-3.223,6.901-6.713,13.848-10.467,20.821c-3.762,6.985-7.479,13.961-11.161,20.942
			c-3.683,6.981-7.249,13.844-10.697,20.59C1112.745,1931.544,1109.64,1937.989,1106.878,1944.12z M1074.435,1942.278
			c1.992-3.679,4.214-7.747,6.671-12.195c2.452-4.449,4.984-8.935,7.592-13.459c2.607-4.524,5.177-8.977,7.709-13.346
			c2.532-4.369,4.867-8.32,7.018-11.852c-4.449,3.223-8.935,6.905-13.459,11.048c-4.528,4.139-9.015,8.475-13.459,12.999
			c-4.453,4.528-8.86,9.09-13.233,13.689c-4.369,4.604-8.554,8.977-12.538,13.116H1074.435z"/>
		<path style="fill:#FFFFFF;" d="M1252.296,1961.609c-7.056,13.342-13.689,26.5-19.904,39.457
			c-6.211,12.965-12.999,25.813-20.365,38.544c-1.687,2.762-3.833,4.829-6.441,6.211c-2.612,1.381-5.675,1.456-9.203,0.23
			c-1.996-0.615-3.951-1.268-5.868-1.954c-1.921-0.695-3.683-1.574-5.294-2.645c-1.611-1.08-2.955-2.419-4.026-4.03
			c-1.076-1.611-1.691-3.645-1.841-6.098c-0.31-3.373-0.343-7.207-0.113-11.505c0.23-4.29,0.649-8.625,1.264-12.999
			c0.611-4.373,1.343-8.743,2.185-13.116c0.841-4.373,1.729-8.399,2.649-12.082c-2.762,3.072-5.604,6.177-8.517,9.324
			c-2.913,3.143-5.867,5.75-8.855,7.818c-2.992,2.076-6.064,3.302-9.203,3.683c-3.147,0.385-6.328-0.649-9.55-3.105
			c-3.683-3.063-5.675-7.207-5.985-12.425c-0.306-11.35,1.306-21.934,4.834-31.752c3.528-9.818,9.584-18.716,18.176-26.692
			c4.909-4.754,10.203-7.784,15.878-9.09c5.675-1.297,11.735-0.033,18.176,3.8c0.611,0.31,1.071,0.46,1.381,0.46
			c0.151,0.151,0.691,0.075,1.611-0.234c4.294-9.508,8.437-18.594,12.426-27.261c3.988-8.667,8.014-16.874,12.082-24.625
			c4.059-7.742,8.316-15.104,12.769-22.089c4.449-6.976,9.203-13.61,14.267-19.9c1.532-1.992,2.909-2.992,4.139-2.992
			c1.226,0,2.913,0.691,5.064,2.072c1.992,1.23,3.528,2.264,4.599,3.105c1.071,0.845,1.728,1.766,1.959,2.762
			c0.23,1,0.113,2.189-0.347,3.566c-0.46,1.381-1.23,3.072-2.302,5.06c-8.742,17.644-17.138,35.205-25.194,52.694
			c-8.052,17.489-15.531,35.284-22.432,53.38c-2.302,6.14-4.641,12.656-7.018,19.561c-2.381,6.901-4.641,13.961-6.788,21.168
			c-2.151,7.211-4.068,14.346-5.754,21.398c-1.687,7.06-3.068,13.807-4.139,20.247c-0.31,1.226,0.381,0.691,2.072-1.611
			c1.682-2.302,3.909-5.671,6.671-10.124c2.762-4.449,5.868-9.584,9.32-15.414c3.448-5.83,6.939-11.735,10.467-17.719
			s6.864-11.655,10.011-17.025c3.143-5.37,5.788-9.743,7.939-13.116L1252.296,1961.609z M1161.869,1991.976
			c19.017-13.953,30.907-32.208,35.665-54.757c-4.453,0.77-8.902,3.068-13.346,6.901c-4.453,3.838-8.399,8.399-11.852,13.689
			c-3.448,5.29-6.173,10.969-8.165,17.025C1162.175,1980.898,1161.409,1986.611,1161.869,1991.976z"/>
		<path style="fill:#FFFFFF;" d="M1342.488,1970.582c-4.599,0.921-9.471,1.147-14.61,0.686c-5.139-0.46-10.011-1.607-14.61-3.448
			c-2.762,3.532-5.868,7.249-9.32,11.157c-3.453,3.913-7.056,7.901-10.814,11.969c-3.762,4.064-7.671,8.052-11.735,11.961
			c-4.068,3.913-8.019,7.479-11.848,10.701c-3.072,2.607-6.215,3.875-9.437,3.796c-3.218-0.075-6.52-1.189-9.894-3.34
			c-3.679-2.758-6.788-4.905-9.316-6.437c-2.532-1.532-4.486-3.26-5.867-5.181c-1.381-1.917-2.147-4.294-2.302-7.131
			c-0.151-2.837,0.385-6.939,1.611-12.313c2.452-10.58,5.868-20.741,10.237-30.484c4.373-9.743,9.701-19.214,15.991-28.417
			c1.992-2.913,3.8-5.097,5.407-6.562c1.611-1.452,3.26-2.218,4.951-2.298c1.682-0.075,3.524,0.615,5.52,2.072
			c1.992,1.456,4.294,3.566,6.901,6.328c-1.687,3.833-3.679,8.32-5.981,13.459c-2.302,5.139-4.641,10.471-7.018,15.991
			c-2.381,5.52-4.641,11.044-6.788,16.569c-2.151,5.52-3.951,10.58-5.407,15.183c-1.461,4.604-2.415,8.512-2.875,11.735
			s-0.23,5.374,0.691,6.445c1.381,0.611,3.298,0.226,5.75-1.151c2.453-1.381,5.139-3.298,8.056-5.754
			c2.909-2.452,5.901-5.29,8.973-8.512c3.068-3.223,5.981-6.52,8.743-9.893s5.252-6.52,7.479-9.433
			c2.222-2.913,3.871-5.37,4.947-7.366c0.305-0.301,0.46-0.837,0.46-1.607s-0.042-1.615-0.117-2.532
			c-0.075-0.921-0.23-1.804-0.46-2.649c-0.23-0.837-0.423-1.494-0.573-1.955c-1.691-6.591-1.954-13.187-0.803-19.787
			c1.147-6.591,3.218-12.886,6.211-18.87c2.992-5.98,6.671-11.576,11.044-16.795c4.373-5.21,8.935-9.663,13.689-13.346
			c4.604-3.373,8.362-4.717,11.275-4.026c2.913,0.691,6.445,2.955,10.584,6.788c0.766,0.615,1.268,1.574,1.498,2.875
			c0.23,1.306,0.188,2.415-0.117,3.336c-1.837,5.679-4.105,11.584-6.788,17.719c-2.683,6.135-5.637,12.158-8.856,18.063
			c-3.223,5.905-6.524,11.584-9.893,17.025c-3.377,5.449-6.6,10.396-9.667,14.84c3.528,1.691,8.056,2.457,13.576,2.302
			c5.524-0.151,10.274-1.297,14.267-3.448L1342.488,1970.582z M1309.585,1947.798c2.762-2.758,5.558-6.361,8.399-10.814
			c2.838-4.444,5.482-9.048,7.939-13.802c2.452-4.754,4.562-9.282,6.328-13.576c1.762-4.294,2.875-7.742,3.335-10.354
			c-2.762,2.151-5.604,5.29-8.512,9.433c-2.917,4.143-5.604,8.592-8.056,13.346c-2.452,4.758-4.524,9.471-6.211,14.15
			C1311.117,1940.86,1310.045,1944.735,1309.585,1947.798z"/>
		<path style="fill:#FFFFFF;" d="M1433.835,1963.216c-8.132,7.516-16.493,14.727-25.081,21.628
			c-8.592,6.905-17.795,12.886-27.609,17.945c-10.433,5.524-20.787,5.219-31.066-0.917c-3.988-2.607-7.131-5.595-9.433-8.977
			c-2.302-3.369-3.298-7.437-2.992-12.195c0.77-11.501,3.495-22.005,8.169-31.522c4.679-9.508,11.773-17.715,21.285-24.616
			c3.683-2.762,7.324-4.336,10.927-4.721c3.604-0.377,7.169,0,10.701,1.155c3.528,1.147,6.863,2.838,10.011,5.06
			c3.139,2.222,6.098,4.566,8.856,7.018c6.29,5.675,6.905,11.89,1.841,18.636c-6.901,9.203-15.723,15.648-26.462,19.331
			c-4.139,1.532-8.132,1.649-11.965,0.343c-3.833-1.302-7.516-2.645-11.044-4.026c-2.147,3.683-3.758,7.286-4.83,10.814
			c-1.076,3.532-1.611,7.286-1.611,11.275c0,3.532,0.653,5.909,1.954,7.131c1.302,1.23,3.72,1.461,7.249,0.691
			c6.29-1.687,12.271-4.064,17.95-7.131c5.671-3.068,11.12-6.403,16.334-10.011c5.215-3.603,10.274-7.395,15.188-11.388
			c4.905-3.988,9.894-7.742,14.957-11.275L1433.835,1963.216z M1392.19,1933.536c-2.151,0.77-4.528,2.151-7.135,4.143
			c-2.607,1.992-5.215,4.252-7.822,6.788c-2.611,2.528-4.989,5.06-7.131,7.592c-2.151,2.528-3.762,4.796-4.834,6.788
			c2.762,0.31,5.637-0.234,8.63-1.615c2.988-1.377,5.788-3.218,8.395-5.52c2.607-2.298,4.834-5.022,6.675-8.165
			C1390.808,1940.399,1391.88,1937.068,1392.19,1933.536z"/>
		<path style="fill:#FFFFFF;" d="M1564.756,1965.518c-4.913,4.604-9.86,9.09-14.84,13.459c-4.989,4.373-10.011,8.784-15.07,13.233
			c-2.611,1.992-5.256,2.724-7.939,2.185c-2.687-0.536-5.562-1.8-8.63-3.796c-3.072-1.841-4.758-3.913-5.064-6.215
			c-0.306-2.302-0.46-4.52-0.46-6.671c0.155-3.988,0.46-7.901,0.921-11.735c0.46-3.833,0.841-7.742,1.151-11.735
			c0.46-6.445-0.343-9.814-2.415-10.124c-2.072-0.305-5.562,1.226-10.471,4.599c-9.818,7.215-19.176,14.765-28.069,22.666
			c-8.897,7.901-16.878,16.682-23.93,26.345c-1.691,2.151-3.03,3.796-4.026,4.947c-1,1.151-2.072,1.804-3.223,1.954
			c-1.151,0.159-2.611-0.151-4.369-0.921c-1.766-0.762-4.185-1.992-7.249-3.679c-1.23-0.611-2.344-1.151-3.34-1.611
			c-0.996-0.46-2.03-1.071-3.105-1.841c-3.679-1.992-5.52-4.905-5.52-8.743c1.075-12.731,4.064-24.889,8.973-36.473
			c4.909-11.576,12.346-21.511,22.319-29.793c2.147-1.992,4.407-2.95,6.788-2.875c2.377,0.075,4.716,0.653,7.018,1.724
			c2.302,1.076,4.52,2.377,6.671,3.909c2.147,1.54,4.064,2.846,5.754,3.917c-3.532,3.068-7.018,6.864-10.471,11.388
			c-3.453,4.524-6.671,9.203-9.663,14.032c-2.992,4.834-5.679,9.592-8.052,14.271c-2.381,4.679-4.26,8.625-5.637,11.848
			c4.29-3.833,9.048-7.973,14.263-12.425c5.215-4.449,10.509-8.705,15.878-12.773c5.369-4.059,10.584-7.822,15.648-11.274
			c5.06-3.448,9.584-6.169,13.572-8.169c2.607-1.222,5.215-1.565,7.826-1.03c2.607,0.536,5.365,1.649,8.282,3.331
			c6.596,4.143,9.969,9.282,10.124,15.418c-0.155,5.215-0.54,10.237-1.151,15.074c-0.615,4.83-0.23,9.471,1.151,13.92
			c5.37-3.988,10.505-8.052,15.418-12.195c4.905-4.143,9.814-8.437,14.723-12.886L1564.756,1965.518z"/>
		<path style="fill:#FFFFFF;" d="M1641.376,1961.149c-11.199,13.036-21.859,24.96-31.986,35.778
			c-10.124,10.814-20.557,21.055-31.292,30.714c-2.913,2.151-5.562,3.758-7.939,4.834c-2.377,1.071-5.177,0.611-8.395-1.377
			c-0.77-0.46-1.611-0.887-2.532-1.268c-0.921-0.385-1.841-0.883-2.762-1.494c-3.988-1.691-6.864-3.988-8.63-6.905
			c-1.762-2.913-2.72-6.361-2.875-10.354c-0.305-5.675,0.042-11.195,1.038-16.565c0.996-5.369,2.339-10.663,4.026-15.878
			c4.139-13.652,9.433-26.692,15.874-39.114c6.445-12.43,13.346-24.7,20.708-36.82c0.921-1.222,1.762-2.49,2.532-3.792
			c0.766-1.306,1.762-2.879,2.992-4.721c-4.143,0-8.249,0.042-12.308,0.117c-4.068,0.075-8.019-0.117-11.852-0.578
			c-3.838-0.46-7.516-1.339-11.044-2.645c-3.528-1.302-6.822-3.49-9.893-6.558c-1.687-1.532-2.566-3.068-2.645-4.599
			c-0.075-1.532,0.23-2.913,0.921-4.143c0.691-1.226,1.687-2.222,2.988-2.992c1.306-0.766,2.649-1.151,4.026-1.151
			c1.23,1.691,3.607,2.992,7.135,3.913c3.528,0.921,7.629,1.611,12.308,2.072c4.679,0.46,9.588,0.728,14.727,0.803
			c5.139,0.079,10.01,0.117,14.61,0.117c4.294-5.064,8.437-10.128,12.425-15.188c3.988-5.06,8.014-10.006,12.082-14.844
			c4.059-4.83,8.127-9.467,12.191-13.92c4.064-4.445,8.32-8.588,12.773-12.421c1.381-1.071,2.762-1.992,4.143-2.762
			c1.377-0.766,2.909-0.611,4.599,0.46c1.687,1.23,3.256,2.645,4.716,4.256c1.456,1.611,2.8,3.26,4.026,4.947
			c0.151,0.155-0.08,1.193-0.691,3.105c-0.611,1.921-1.344,4.068-2.185,6.441c-0.845,2.385-1.649,4.683-2.415,6.905
			c-0.77,2.227-1.23,3.721-1.381,4.486c-1.23-0.611-2.302-1.189-3.223-1.724c-0.921-0.536-1.841-1.189-2.762-1.958l-20.708,28.303
			c11.505-1.381,23.277-2.453,35.322-3.223c12.04-0.766,23.428-1.109,34.167-1.034c10.735,0.075,20.44,0.578,29.107,1.494
			c8.663,0.921,15.531,2.302,20.595,4.143c2.913,1.076,5.52,2.339,7.822,3.796c2.302,1.461,4.449,3.26,6.445,5.407
			c1.071,1.381,1.569,2.532,1.494,3.448c-0.079,0.921-1.113,1.155-3.105,0.695c-5.984-2.302-12.697-3.913-20.134-4.834
			c-7.441-0.921-15.267-1.419-23.47-1.494c-8.207-0.075-16.606,0.226-25.194,0.921c-8.592,0.686-16.991,1.456-25.198,2.302
			s-16.071,1.724-23.583,2.645c-7.516,0.921-14.267,1.607-20.247,2.068c-1.841,0.31-3.415,0.695-4.717,1.155
			c-1.306,0.46-2.494,1.456-3.566,2.988c-6.139,9.818-12.12,19.787-17.95,29.915c-5.83,10.12-11.157,20.44-15.991,30.944
			c-4.834,10.513-8.973,21.252-12.426,32.217s-5.947,22.126-7.479,33.476c6.596-4.139,12.886-8.973,18.87-14.493
			c5.98-5.524,11.81-11.312,17.485-17.376c5.675-6.056,11.275-12.153,16.799-18.289c5.52-6.135,11.195-11.885,17.025-17.259
			L1641.376,1961.149z"/>
		<path style="fill:#FFFFFF;" d="M1645.745,2001.413c5.985-1.841,12.195-5.06,18.636-9.663c6.445-4.604,12.656-9.701,18.64-15.301
			c5.98-5.6,11.505-11.237,16.565-16.916c5.064-5.671,9.207-10.505,12.425-14.493c1.687,0.766,3.453,1.494,5.294,2.185
			c1.841,0.691,3.411,1.536,4.717,2.532c1.302,0.996,2.185,2.226,2.645,3.683c0.46,1.456,0.23,3.335-0.691,5.633
			c-2.607,6.445-5.139,12.622-7.592,18.523c-2.457,5.909-3.838,12.467-4.143,19.674c4.754-1.988,9.433-4.717,14.037-8.165
			c4.604-3.457,8.78-7.098,12.538-10.931c3.758-3.833,7.094-7.554,10.011-11.157c2.913-3.608,5.215-6.713,6.901-9.324
			c0.921,0.77,2.034,1.691,3.34,2.762c1.302,1.08,2.49,1.996,3.566,2.762c-1.691,3.072-3.875,6.483-6.558,10.241
			c-2.687,3.762-5.562,7.441-8.63,11.044c-3.068,3.608-6.252,7.014-9.546,10.237c-3.302,3.222-6.328,5.834-9.09,7.826
			c-2.611,1.841-5.177,3.185-7.709,4.026c-2.532,0.845-5.332,0.427-8.399-1.264c-3.528-1.841-6.211-3.566-8.052-5.181
			c-1.841-1.607-3.147-3.448-3.913-5.52c-0.77-2.072-1-4.637-0.691-7.709c0.306-3.068,0.921-7.052,1.842-11.965
			c-3.068,3.072-6.365,6.294-9.894,9.668c-3.532,3.373-7.211,6.671-11.044,9.893c-3.838,3.218-7.747,6.253-11.735,9.086
			c-3.988,2.842-7.901,5.177-11.735,7.018c-6.441,2.762-12.58,2.151-18.406-1.841c-0.921-0.766-1.959-1.414-3.109-1.954
			c-1.147-0.536-2.105-1.268-2.875-2.189c-2.762-3.063-4.445-6.822-5.06-11.274c-0.611-4.445-0.46-9.236,0.46-14.38
			c0.921-5.139,2.452-10.429,4.599-15.878c2.151-5.441,4.562-10.618,7.249-15.526c2.682-4.909,5.482-9.433,8.399-13.576
			c2.913-4.143,5.595-7.441,8.052-9.894c3.528-3.222,7.324-4.524,11.392-3.913c4.06,0.615,7.324,2.917,9.776,6.901
			c0.766,1.536,0.883,2.879,0.347,4.026c-0.54,1.155-1.193,2.344-1.959,3.566c-3.218,4.302-6.554,9.207-10.007,14.731
			c-3.453,5.52-6.637,11.274-9.55,17.255c-2.917,5.98-5.369,11.965-7.361,17.95
			C1647.432,1990.599,1646.206,1996.199,1645.745,2001.413z"/>
		<path style="fill:#FFFFFF;" d="M1870.315,1964.367c-3.532,2.917-7.098,5.947-10.701,9.09c-3.603,3.143-7.211,6.022-10.814,8.625
			c-3.603,2.611-7.018,4.834-10.237,6.675c-3.222,1.841-6.139,2.992-8.747,3.453c-2.758,0.46-5.332,0.31-7.705-0.46
			c-2.381-0.77-4.256-1.959-5.637-3.566c-1.381-1.615-2.268-3.608-2.649-5.985c-0.385-2.377,0.038-4.867,1.268-7.479
			c1.687-4.139,3.603-8.09,5.75-11.848s4.294-7.479,6.445-11.161c2.147-3.679,4.139-7.362,5.98-11.044s3.373-7.516,4.604-11.505
			c-9.052,3.683-17.602,8.63-25.654,14.844c-8.056,6.211-15.497,13.191-22.323,20.934c-6.826,7.751-12.923,15.995-18.289,24.738
			c-5.374,8.743-9.822,17.414-13.346,26.002c-2.151-0.151-4.331-0.808-6.558-1.959c-2.222-1.147-4.177-2.645-5.868-4.486
			c-1.687-1.842-2.913-3.984-3.683-6.445c-0.766-2.448-0.766-5.21,0-8.278c1.536-6.75,3.377-13.501,5.524-20.251
			c2.147-6.746,4.641-13.346,7.479-19.787c2.833-6.441,6.094-12.543,9.776-18.293c3.683-5.75,7.977-10.931,12.886-15.531
			c1.992-1.992,3.871-3.185,5.637-3.57c1.762-0.377,3.528-0.226,5.294,0.46c1.762,0.695,3.448,1.691,5.06,2.996
			c1.611,1.306,3.256,2.72,4.947,4.252l-12.656,21.402c6.905-5.064,13.693-10.203,20.365-15.418
			c6.671-5.215,14.15-9.508,22.436-12.886c4.444-1.837,8.47-2.298,12.078-1.377c3.603,0.917,6.939,2.913,10.011,5.98
			c1.532,1.536,2.603,3.143,3.218,4.834c0.611,1.687,0.46,3.603-0.46,5.75c-3.833,9.358-8.512,17.946-14.032,25.772
			c-5.524,7.822-10.739,15.799-15.648,23.93c-0.46,1.842,0.498,2.222,2.875,1.147c2.377-1.071,5.558-2.988,9.55-5.75
			c3.988-2.762,8.475-6.06,13.459-9.893s9.78-7.592,14.38-11.275L1870.315,1964.367z"/>
		<path style="fill:#FFFFFF;" d="M1858.346,1980.701c0.77-11.501,3.495-22.005,8.169-31.522
			c4.679-9.508,11.773-17.715,21.285-24.616c3.683-2.762,7.324-4.336,10.927-4.721c3.603-0.377,7.169,0,10.701,1.155
			c3.528,1.147,6.863,2.838,10.011,5.06c3.139,2.222,6.098,4.566,8.856,7.018c6.29,5.675,6.905,11.89,1.841,18.636
			c-6.901,9.203-15.723,15.648-26.462,19.331c-4.139,1.532-8.131,1.649-11.965,0.343c-3.833-1.302-7.516-2.645-11.044-4.026
			c-0.917,1.841-1.954,4.143-3.105,6.901c-1.151,2.762-2.072,5.562-2.762,8.399c-0.686,2.837-0.996,5.524-0.917,8.052
			c0.075,2.532,0.804,4.486,2.185,5.867c7.667-1.841,15.681-4.604,24.043-8.282c8.362-3.679,16.569-8.09,24.621-13.229
			c8.052-5.139,15.836-10.89,23.357-17.259c7.512-6.361,14.225-13.116,20.13-20.247c5.905-7.131,10.852-14.531,14.84-22.206
			c3.988-7.667,6.52-15.418,7.596-23.235c0.305-2.302,1.109-3.951,2.415-4.947c1.302-0.996,3.871-0.498,7.709,1.49
			c5.826,4.604,9.396,9.132,10.697,13.576c1.302,4.453,1.189,9.132-0.343,14.037c-3.072,9.977-7.977,19.214-14.727,27.73
			c-6.75,8.512-14.493,16.221-23.24,23.122c-8.742,6.901-18.063,12.886-27.956,17.95c-9.893,5.06-19.364,9.123-28.417,12.191
			c-5.06,1.691-10.467,3.223-16.221,4.604c-5.75,1.377-11.387,2.222-16.912,2.532c-3.528,0.31-6.826-0.151-9.894-1.381
			c-3.072-1.226-5.75-2.913-8.052-5.064c-2.302-2.143-4.143-4.716-5.524-7.709
			C1858.806,1987.264,1858.195,1984.083,1858.346,1980.701z M1912.881,1933.536c-2.151,0.77-4.528,2.151-7.135,4.143
			c-2.607,1.992-5.215,4.252-7.822,6.788c-2.611,2.528-4.988,5.06-7.131,7.592c-2.151,2.528-3.762,4.796-4.834,6.788
			c2.762,0.31,5.637-0.234,8.63-1.615c2.988-1.377,5.788-3.218,8.395-5.52c2.607-2.298,4.834-5.022,6.675-8.165
			C1911.5,1940.399,1912.572,1937.068,1912.881,1933.536z"/>
	</g>
</g>
</svg>
